# xmcd
#
# Track frame offsets: 
#        150
#        19648
#        37021
#        60907
#        80037
#        96961
#        115467
#        135100
#        160132
#        179675
#        200812
#        225342
#        245773
#        262990
#
# Disc length: 3759 seconds
#
# Revision: 0
# Processed by: cddbd v1.5.2PL0 Copyright (c) Steve Scherf et al.
# Submitted via: ExactAudioCopy v1.0b1
#
DISCID=b90ead0e
DTITLE=Phan Dinh Tung - Vol.4 - Phan Dinh Tung Hay Phan Dinh Tung?
DYEAR=2006
DGENRE=Pop
TTITLE0=Cam Bay Tinh Yeu (Kiep Da Tinh) (Minh Khang)
TTITLE1=Vi Em Doi Gian (Phan Dinh Tung) song ca voi Uyen Trang
TTITLE2=Mong Em Luon Hanh Phuc (Nguyen Van Chung)
TTITLE3=Hay Nhin Ve Tuong Lai (That Tinh Ca) (Phan Dinh Tung) song ca 
TTITLE3=voi Hoang Thanh
TTITLE4=Tinh Yeu Dep Nhu The (Nguyen Van Chung)
TTITLE5=Danh Roi Tinh Yeu (Minh Khang)
TTITLE6=Anh Van Con Yeu Em (Phan Dinh Tung)
TTITLE7=Loi Lam (Minh Khang) song ca voi Ngo Mai Trang
TTITLE8=Khi Tinh Yeu Den (Truong Le Son)
TTITLE9=Den Bao Gio Em Biet (Truong Le Son)
TTITLE10=Ngan Doi Anh Yeu Em (Phan Dinh Tung)
TTITLE11=Va Con Tim Da Vui Tro Lai (Duc Huy)
TTITLE12=Vi Em Doi Gian (Solo) (Phan Dinh Tung)
TTITLE13=Hay Nhin Ve Tuong Lai (Solo) (Phan Dinh Tung)
EXTD=
EXTT0=
EXTT1=
EXTT2=
EXTT3=
EXTT4=
EXTT5=
EXTT6=
EXTT7=
EXTT8=
EXTT9=
EXTT10=
EXTT11=
EXTT12=
EXTT13=
PLAYORDER=
